REM MD5 59f0fd92ccc69637f9bb41895db47a25
FILE "Saikyou no Igo (Japan).bin" BINARY
  TRACK 01 MODE2/2352
    INDEX 01 00:00:00
  TRACK 02 AUDIO
    INDEX 00 00:53:54
    INDEX 01 00:55:54
  TRACK 03 AUDIO
    INDEX 00 01:23:17
    INDEX 01 01:25:17
  TRACK 04 AUDIO
    INDEX 00 01:50:30
    INDEX 01 01:52:30
  TRACK 05 AUDIO
    INDEX 00 02:15:00
    INDEX 01 02:17:00
  TRACK 06 AUDIO
    INDEX 00 02:42:71
    INDEX 01 02:44:71
REM LEADOUT 05:44:72
